# xmcd
#
# Track frame offsets:
#	150
#	19997
#	34232
#	53898
#	70416
#	102459
#	118644
#	135932
#	151647
#	165250
#	181008
#
# Disc length: 2709 seconds
#
# Revision: 67
# Processed by: cddbd v1.5.2PL0 Copyright (c) Steve Scherf et al.
# Submitted via: EasyCDDAExtractor 10.2.0.1
#
DISCID=840a930b
DTITLE=Eric Clapton - Time Pieces: Best of Eric Clapton
DYEAR=1982
DGENRE=Blues
TTITLE0=I Shot The Sheriff
TTITLE1=After Midnight
TTITLE2=Knockin' On Heaven's Door
TTITLE3=Wonderful Tonight
TTITLE4=Layla
TTITLE5=Cocaine
TTITLE6=Lay Down Sally
TTITLE7=Willie And The Hand Jive
TTITLE8=Promises
TTITLE9=Swing Low Sweet Chariot
TTITLE10=Let It Grow
EXTD=YEAR: 1982
EXTT0=Bob Marley - 1974
EXTT1=J.J. Cale - 1970
EXTT2=Bob Dylan - 1975
EXTT3=Eric Clapton - Michael Kamen - 1977
EXTT4=Eric Clapton - Jim Gordon - 1970
EXTT5=J.J. Cale - 1977
EXTT6=Eric Clapton - George Terry - Marcy Levy - 1977
EXTT7=Johnny Otis - 1974
EXTT8=Richard Feldman - Roger Linn - 1978
EXTT9=Traditional - 1975
EXTT10=Eric Clapton - 1974
PLAYORDER=
